<svg width="21" height="23" viewBox="0 0 21 23" fill="none" xmlns="http://www.w3.org/2000/svg">
<path d="M21 0.958096C21 0.703993 20.9078 0.460298 20.7437 0.28062C20.5796 0.100942 20.3571 0 20.125 0C19.8929 0 19.6704 0.100942 19.5063 0.28062C19.3422 0.460298 19.25 0.703993 19.25 0.958096V22.0362C19.25 22.2903 19.3422 22.534 19.5063 22.7137C19.6704 22.8934 19.8929 22.9943 20.125 22.9943C20.3571 22.9943 20.5796 22.8934 20.7437 22.7137C20.9078 22.534 21 22.2903 21 22.0362V0.958096ZM3.96e-07 1.92003C-0.000215671 1.56829 0.0879903 1.22327 0.254954 0.922776C0.421917 0.622282 0.661196 0.377905 0.946572 0.216422C1.23195 0.0549383 1.55241 -0.0174217 1.87285 0.00727086C2.19329 0.0319634 2.50134 0.152756 2.76325 0.356412L15.0133 9.86648C15.2407 10.0428 15.4264 10.2761 15.5549 10.5469C15.6834 10.8177 15.751 11.1181 15.752 11.4233C15.753 11.7285 15.6875 12.0295 15.5608 12.3013C15.4341 12.5731 15.25 12.8079 15.0238 12.986L2.77375 22.6379C2.51242 22.8443 2.20411 22.9677 1.88282 22.9945C1.56153 23.0212 1.23972 22.9504 0.952864 22.7897C0.66601 22.629 0.425249 22.3846 0.257117 22.0837C0.0889857 21.7827 1.11232e-05 21.4367 3.96e-07 21.0839V1.92003ZM14 11.4301L1.75 1.92003V21.082L14 11.4301Z" fill="black"/>
</svg>
