<svg width="20" height="21" viewBox="0 0 20 21" fill="none" xmlns="http://www.w3.org/2000/svg">
<path d="M13.3333 3C13.7936 3 14.1667 3.3731 14.1667 3.83333V4.66667H15.8333C16.712 4.66667 17.4318 5.34656 17.4954 6.20895L17.5 6.33333V16.3333C17.5 17.212 16.8201 17.9318 15.9577 17.9954L15.8333 18H4.16667C3.28803 18 2.5682 17.3201 2.50457 16.4577L2.5 16.3333V6.33333C2.5 5.4547 3.1799 4.73486 4.04228 4.67124L4.16667 4.66667H5.83333V3.83333C5.83333 3.3731 6.20643 3 6.66667 3C7.1269 3 7.5 3.3731 7.5 3.83333V4.66667H12.5V3.83333C12.5 3.3731 12.8731 3 13.3333 3ZM12.3534 8.31565L8.81792 11.8512L7.63939 10.6727C7.31396 10.3472 6.78632 10.3472 6.46088 10.6727C6.13544 10.9981 6.13544 11.5258 6.46088 11.8512L8.22276 13.6131C8.55142 13.9417 9.08433 13.9417 9.41308 13.6131L13.5319 9.49417C13.8574 9.16875 13.8574 8.64109 13.5319 8.31565C13.2065 7.99022 12.6788 7.99022 12.3534 8.31565Z" fill="white"/>
</svg>
