<svg width="20" height="20" viewBox="0 0 20 20" fill="none" xmlns="http://www.w3.org/2000/svg">
<path fill-rule="evenodd" clip-rule="evenodd" d="M1.66699 5C1.66699 3.61929 2.78628 2.5 4.16699 2.5H15.8337C17.2144 2.5 18.3337 3.61929 18.3337 5V13.3333C18.3337 14.7141 17.2144 15.8333 15.8337 15.8333H6.11143L3.33366 17.9167C2.64696 18.4317 1.66699 17.9417 1.66699 17.0833V5ZM5.83366 7.5C5.83366 7.03977 6.20676 6.66667 6.66699 6.66667H13.3337C13.7939 6.66667 14.167 7.03977 14.167 7.5C14.167 7.96023 13.7939 8.33333 13.3337 8.33333H6.66699C6.20676 8.33333 5.83366 7.96023 5.83366 7.5ZM6.66699 10C6.20676 10 5.83366 10.3731 5.83366 10.8333C5.83366 11.2936 6.20676 11.6667 6.66699 11.6667H9.16699C9.62724 11.6667 10.0003 11.2936 10.0003 10.8333C10.0003 10.3731 9.62724 10 9.16699 10H6.66699Z" fill="white" fill-opacity="0.5"/>
</svg>
