<svg width="20" height="20" viewBox="0 0 20 20" fill="none" xmlns="http://www.w3.org/2000/svg">
<path d="M5.83331 2.50008V3.33341C5.83331 4.25389 6.5795 5.00008 7.49998 5.00008H12.5C13.4205 5.00008 14.1666 4.25389 14.1666 3.33341V2.50008H15C15.9205 2.50008 16.6666 3.24627 16.6666 4.16675V13.3334C16.6666 16.0948 14.4281 18.3334 11.6666 18.3334H4.99998C4.0795 18.3334 3.33331 17.5872 3.33331 16.6667V4.16675C3.33331 3.24627 4.0795 2.50008 4.99998 2.50008H5.83331ZM9.99998 11.6667H7.49998C7.03975 11.6667 6.66665 12.0398 6.66665 12.5001C6.66665 12.9603 7.03975 13.3334 7.49998 13.3334H9.99998C10.4602 13.3334 10.8333 12.9603 10.8333 12.5001C10.8333 12.0398 10.4602 11.6667 9.99998 11.6667ZM12.5 8.33341H7.49998C7.03975 8.33341 6.66665 8.7065 6.66665 9.16675C6.66665 9.59412 6.98835 9.94634 7.4028 9.99448L7.49998 10.0001H12.5C12.9602 10.0001 13.3333 9.627 13.3333 9.16675C13.3333 8.7065 12.9602 8.33341 12.5 8.33341ZM11.6666 1.66675C12.1269 1.66675 12.5 2.03985 12.5 2.50008C12.5 2.92744 12.1783 3.27967 11.7638 3.32781L11.6666 3.33341H8.33331C7.87308 3.33341 7.49998 2.96031 7.49998 2.50008C7.49998 2.07272 7.82168 1.72049 8.23613 1.67235L8.33331 1.66675H11.6666Z" fill="white" fill-opacity="0.5"/>
</svg>
